<?xml version="1.0" encoding="UTF-8"?>
<svg xmlns="http://www.w3.org/2000/svg" id="Layer_1" data-name="Layer 1" viewBox="0 0 24 24">
  <path d="m19.5,0H4.5C2.019,0,0,2.019,0,4.5v15c0,2.481,2.019,4.5,4.5,4.5h15c2.481,0,4.5-2.019,4.5-4.5V4.5c0-2.481-2.019-4.5-4.5-4.5Zm3.5,19.5c0,1.93-1.57,3.5-3.5,3.5H4.5c-1.93,0-3.5-1.57-3.5-3.5V4.5c0-1.93,1.57-3.5,3.5-3.5h15c1.93,0,3.5,1.57,3.5,3.5v15Zm-4-14v3c0,.827-.673,1.5-1.5,1.5h-3c-.276,0-.5-.224-.5-.5s.224-.5.5-.5h2.683c-1.074-1.852-3.029-3-5.183-3-3.118,0-5.746,2.433-5.982,5.538-.021.262-.239.462-.498.462-.014,0-.026,0-.039-.001-.275-.021-.481-.261-.461-.537.276-3.624,3.343-6.462,6.98-6.462,2.483,0,4.738,1.308,6,3.424v-2.924c0-.276.224-.5.5-.5s.5.224.5.5Zm-.02,7.038c-.276,3.624-3.343,6.462-6.98,6.462-2.483,0-4.738-1.308-6-3.424v2.924c0,.276-.224.5-.5.5s-.5-.224-.5-.5v-3c0-.827.673-1.5,1.5-1.5h3c.276,0,.5.224.5.5s-.224.5-.5.5h-2.683c1.074,1.852,3.029,3,5.183,3,3.118,0,5.746-2.433,5.982-5.538.021-.276.284-.479.537-.46.275.021.481.261.461.537Z"/>
</svg>
